<svg width="41.000000" height="28.000000" viewBox="0 0 41 28" fill="none" xmlns="http://www.w3.org/2000/svg" xmlns:xlink="http://www.w3.org/1999/xlink">
	<desc>
			Created with Pixso.
	</desc>
	<defs/>
	<path id="svg" d="M39.5 1.73C39.5 1.2 39.28 0.69 38.91 0.31C38.53 -0.06 38.03 -0.27 37.5 -0.27L2.5 -0.27C1.96 -0.27 1.46 -0.06 1.08 0.31C0.71 0.69 0.5 1.2 0.5 1.73L0.5 24.73C0.5 25.26 0.71 25.77 1.08 26.14C1.46 26.52 1.96 26.73 2.5 26.73L37.5 26.73C38.03 26.73 38.53 26.52 38.91 26.14C39.28 25.77 39.5 25.26 39.5 24.73L39.5 1.73Z" stroke="#000000" stroke-opacity="1.000000" stroke-width="1.000000" stroke-linejoin="round"/>
	<path id="svg" d="M39.5 4.21L20 13.23L0.5 4.21" stroke="#000000" stroke-opacity="1.000000" stroke-width="1.000000" stroke-linejoin="round" stroke-linecap="round"/>
</svg>
