<svg width="60.000000" height="61.000000" viewBox="0 0 60 61" fill="none" xmlns="http://www.w3.org/2000/svg" xmlns:xlink="http://www.w3.org/1999/xlink">
	<desc>
			Created with Pixso.
	</desc>
	<defs>
		<clipPath id="clip503_8">
			<rect id="svg" width="60.000000" height="61.000000" fill="white" fill-opacity="0"/>
		</clipPath>
	</defs>
	<rect id="svg" width="60.000000" height="61.000000" fill="#FFFFFF" fill-opacity="0"/>
	<g clip-path="url(#clip503_8)">
		<path id="svg" d="M44.97 4.22C42.45 3.95 39.91 3.82 37.38 3.83C28.97 3.83 23.75 9.18 23.75 17.8L23.75 23.66L16.68 23.66C16.35 23.66 16.03 23.79 15.8 24.02C15.56 24.26 15.43 24.57 15.43 24.91L15.43 34.53C15.43 34.86 15.56 35.18 15.8 35.41C16.03 35.65 16.35 35.78 16.68 35.78L23.75 35.78L23.75 55.08C23.75 55.41 23.88 55.73 24.11 55.96C24.35 56.2 24.66 56.33 25 56.33L34.94 56.33C35.27 56.33 35.59 56.2 35.82 55.96C36.06 55.73 36.19 55.41 36.19 55.08L36.19 35.78L43.23 35.78C43.53 35.78 43.83 35.67 44.05 35.47C44.28 35.27 44.43 34.99 44.47 34.69L45.71 25.07C45.74 24.89 45.72 24.71 45.67 24.54C45.62 24.37 45.53 24.21 45.41 24.08C45.3 23.95 45.15 23.84 44.99 23.77C44.83 23.69 44.65 23.66 44.47 23.66L36.19 23.66L36.19 18.76C36.19 16.33 36.68 15.32 39.71 15.32L44.81 15.32C45.14 15.32 45.46 15.19 45.69 14.95C45.93 14.72 46.06 14.4 46.06 14.07L46.06 5.46C46.06 5.15 45.95 4.86 45.75 4.63C45.55 4.4 45.27 4.26 44.97 4.22ZM43.56 12.82L39.71 12.82C34.32 12.82 33.69 16.21 33.69 18.76L33.69 24.91C33.69 25.24 33.82 25.56 34.06 25.79C34.29 26.02 34.61 26.16 34.94 26.16L43.05 26.16L42.13 33.28L34.94 33.28C34.61 33.28 34.29 33.41 34.06 33.65C33.82 33.88 33.69 34.2 33.69 34.53L33.69 53.83L26.25 53.83L26.25 34.53C26.25 34.2 26.11 33.88 25.88 33.65C25.64 33.41 25.33 33.28 25 33.28L17.94 33.28L17.94 26.16L25 26.16C25.33 26.16 25.64 26.03 25.88 25.79C26.11 25.56 26.25 25.24 26.25 24.91L26.25 17.8C26.25 10.62 30.41 6.33 37.38 6.33C39.9 6.33 42.18 6.46 43.56 6.58L43.56 12.82Z" fill="#000000" fill-opacity="1.000000" fill-rule="nonzero"/>
	</g>
</svg>
