<svg width="60.000000" height="61.000000" viewBox="0 0 60 61" fill="none" xmlns="http://www.w3.org/2000/svg" xmlns:xlink="http://www.w3.org/1999/xlink">
	<desc>
			Created with Pixso.
	</desc>
	<defs>
		<clipPath id="clip503_2">
			<rect id="svg-1" width="60.000000" height="61.000000" fill="white" fill-opacity="0"/>
		</clipPath>
	</defs>
	<rect id="svg-1" width="60.000000" height="61.000000" fill="#FFFFFF" fill-opacity="0"/>
	<g clip-path="url(#clip503_2)">
		<path id="svg" d="M29.99 18.67C26.93 18.67 23.99 19.89 21.82 22.06C19.65 24.22 18.43 27.16 18.43 30.23C18.43 33.3 19.65 36.24 21.82 38.4C23.99 40.57 26.93 41.79 29.99 41.79C33.06 41.79 36 40.57 38.17 38.4C40.33 36.24 41.55 33.3 41.55 30.23C41.55 27.16 40.33 24.22 38.17 22.06C36 19.89 33.06 18.67 29.99 18.67ZM29.99 37.74C28 37.74 26.09 36.95 24.68 35.54C23.27 34.13 22.48 32.22 22.48 30.23C22.48 28.24 23.27 26.33 24.68 24.92C26.09 23.51 28 22.72 29.99 22.72C31.98 22.72 33.89 23.51 35.3 24.92C36.71 26.33 37.5 28.24 37.5 30.23C37.5 32.22 36.71 34.13 35.3 35.54C33.89 36.95 31.98 37.74 29.99 37.74Z" fill="#000000" fill-opacity="1.000000" fill-rule="nonzero"/>
		<path id="svg" d="M42.01 20.94C43.5 20.94 44.71 19.73 44.71 18.25C44.71 16.76 43.5 15.55 42.01 15.55C40.52 15.55 39.32 16.76 39.32 18.25C39.32 19.73 40.52 20.94 42.01 20.94Z" fill="#000000" fill-opacity="1.000000" fill-rule="nonzero"/>
		<path id="svg" d="M51.33 15.5C50.75 14.01 49.86 12.65 48.73 11.52C47.6 10.39 46.24 9.5 44.75 8.92C43 8.27 41.15 7.91 39.28 7.87C36.87 7.77 36.11 7.74 30.01 7.74C23.9 7.74 23.12 7.74 20.73 7.87C18.86 7.91 17.02 8.27 15.27 8.92C13.77 9.5 12.42 10.39 11.28 11.52C10.15 12.65 9.27 14.01 8.69 15.5C8.03 17.25 7.68 19.1 7.64 20.97C7.53 23.37 7.5 24.14 7.5 30.25C7.5 36.35 7.5 37.13 7.64 39.52C7.68 41.39 8.03 43.24 8.69 44.99C9.27 46.48 10.15 47.84 11.29 48.97C12.42 50.11 13.78 50.99 15.27 51.57C17.02 52.25 18.86 52.63 20.74 52.69C23.14 52.8 23.91 52.83 30.01 52.83C36.12 52.83 36.9 52.83 39.29 52.69C41.15 52.65 43 52.3 44.75 51.65C46.24 51.07 47.6 50.18 48.73 49.05C49.87 47.91 50.75 46.56 51.33 45.06C51.99 43.31 52.34 41.47 52.38 39.6C52.49 37.19 52.52 36.43 52.52 30.32C52.52 24.21 52.52 23.44 52.38 21.05C52.35 19.15 51.99 17.28 51.33 15.5ZM48.28 39.33C48.27 40.78 48 42.2 47.51 43.56C47.13 44.53 46.55 45.41 45.82 46.15C45.08 46.88 44.2 47.46 43.23 47.83C41.89 48.33 40.48 48.59 39.05 48.61C36.68 48.72 36 48.75 29.92 48.75C23.82 48.75 23.2 48.75 20.78 48.61C19.35 48.59 17.94 48.33 16.61 47.83C15.63 47.46 14.74 46.89 14 46.15C13.26 45.41 12.68 44.53 12.31 43.56C11.82 42.22 11.55 40.81 11.53 39.38C11.42 37.01 11.4 36.34 11.4 30.25C11.4 24.16 11.4 23.53 11.53 21.11C11.55 19.67 11.81 18.24 12.31 16.89C13.07 14.92 14.63 13.37 16.61 12.61C17.94 12.12 19.35 11.86 20.78 11.83C23.16 11.73 23.82 11.7 29.92 11.7C36.01 11.7 36.63 11.7 39.05 11.83C40.48 11.85 41.89 12.12 43.23 12.61C44.2 12.99 45.08 13.56 45.82 14.3C46.55 15.04 47.13 15.92 47.51 16.89C48 18.23 48.26 19.64 48.28 21.07C48.39 23.44 48.42 24.11 48.42 30.2C48.42 36.29 48.42 36.95 48.31 39.34L48.28 39.34L48.28 39.33Z" fill="#000000" fill-opacity="1.000000" fill-rule="nonzero"/>
	</g>
</svg>
