<svg width="31.000000" height="40.000000" viewBox="0 0 31 40" fill="none" xmlns="http://www.w3.org/2000/svg" xmlns:xlink="http://www.w3.org/1999/xlink">
	<desc>
			Created with Pixso.
	</desc>
	<defs/>
	<path id="svg" d="M4.52 4.07C1.74 6.85 0.17 10.62 0.17 14.55L0.17 15.63C0.77 23.75 7.51 30.28 15 38.73C22.81 29.91 29.82 23.23 29.82 14.55C29.82 10.62 28.25 6.85 25.47 4.07C22.7 1.29 18.93 -0.27 15 -0.27C11.06 -0.27 7.29 1.29 4.52 4.07ZM18.96 8.63C20.13 9.41 21.04 10.53 21.58 11.83C22.12 13.13 22.26 14.57 21.99 15.95C21.71 17.34 21.03 18.61 20.03 19.6C19.04 20.6 17.76 21.28 16.38 21.55C15 21.83 13.56 21.68 12.26 21.14C10.96 20.6 9.84 19.69 9.06 18.51C8.28 17.34 7.86 15.96 7.87 14.55C7.87 12.66 8.62 10.85 9.96 9.51C11.29 8.18 13.11 7.43 15 7.43C16.41 7.43 17.78 7.85 18.96 8.63Z" stroke="#000000" stroke-opacity="1.000000" stroke-width="1.000000" stroke-linejoin="round"/>
</svg>
