<svg width="48.000000" height="48.000000" viewBox="0 0 48 48" fill="none" xmlns="http://www.w3.org/2000/svg" xmlns:xlink="http://www.w3.org/1999/xlink">
	<desc>
			Created with Pixso.
	</desc>
	<defs>
		<clipPath id="clip29_491">
			<rect id="svg" width="48.000000" height="48.000000" transform="translate(0.000000 -0.767578)" fill="white" fill-opacity="0"/>
		</clipPath>
	</defs>
	<rect id="svg" width="48.000000" height="48.000000" transform="translate(0.000000 -0.767578)" fill="#FFFFFF" fill-opacity="0"/>
	<g clip-path="url(#clip29_491)">
		<path id="svg" d="M34.41 28.4C33.91 28.23 33.36 28.19 32.84 28.29C32.31 28.4 31.82 28.63 31.42 28.98C30.89 29.52 29.36 31.03 27.77 32.59C22.07 29.79 17.46 25.18 14.67 19.48C16.21 17.89 17.67 16.37 18.26 15.84C18.6 15.43 18.84 14.94 18.94 14.41C19.04 13.89 19 13.35 18.84 12.84C18.36 10.75 17.99 8.65 17.73 6.53C17.7 6.26 17.61 6 17.48 5.76C17.35 5.52 17.17 5.31 16.96 5.15C16.74 4.98 16.49 4.86 16.23 4.8C15.97 4.73 15.69 4.72 15.43 4.76L6.91 4.76C6.55 4.79 6.22 4.94 5.98 5.19C5.73 5.45 5.57 5.78 5.55 6.13C5 13.82 9.29 22.05 10.16 23.63L10.16 23.69L10.28 23.92C13.39 29.32 17.87 33.8 23.28 36.92L23.72 37.17C25.72 38.23 33.66 42.23 41.1 41.68C41.45 41.65 41.79 41.5 42.04 41.25C42.29 41 42.45 40.67 42.49 40.32L42.49 31.81C42.53 31.54 42.51 31.27 42.45 31C42.38 30.74 42.26 30.49 42.09 30.28C41.93 30.06 41.72 29.88 41.48 29.75C41.25 29.62 40.99 29.54 40.72 29.51C38.6 29.25 36.49 28.88 34.41 28.4Z" stroke="#000000" stroke-opacity="1.000000" stroke-width="1.000000" stroke-linejoin="round"/>
	</g>
</svg>
