<svg width="37.000000" height="37.000000" viewBox="0 0 37 37" fill="none" xmlns="http://www.w3.org/2000/svg" xmlns:xlink="http://www.w3.org/1999/xlink">
	<desc>
			Created with Pixso.
	</desc>
	<defs/>
	<path id="Vector" d="M27.95 3.33C30.9 5.3 33.19 8.1 34.55 11.37C35.9 14.64 36.26 18.25 35.57 21.72C34.88 25.2 33.17 28.39 30.66 30.9C28.16 33.4 24.97 35.11 21.49 35.8C18.01 36.49 14.41 36.14 11.14 34.78C7.86 33.42 5.07 31.13 3.1 28.18C1.13 25.23 0.08 21.77 0.08 18.23C0.08 13.48 1.97 8.92 5.33 5.56C8.69 2.2 13.24 0.31 18 0.31C21.54 0.31 25 1.36 27.95 3.33Z" stroke="#000000" stroke-opacity="1.000000" stroke-width="1.000000" stroke-linejoin="round"/>
	<path id="Vector" d="M18 20.31C16.84 20.31 15.91 19.38 15.91 18.23C15.91 17.08 16.84 16.14 18 16.14C19.15 16.14 20.08 17.08 20.08 18.23C20.08 19.38 19.15 20.31 18 20.31Z" stroke="#000000" stroke-opacity="1.000000" stroke-width="1.000000" stroke-linejoin="round"/>
	<path id="Vector" d="M18 16.14L18 7.76M19.75 19.35L29.91 25.85" stroke="#000000" stroke-opacity="1.000000" stroke-width="1.000000" stroke-linejoin="round"/>
</svg>
